<svg width="80" height="52" viewBox="0 0 80 52" fill="none" xmlns="http://www.w3.org/2000/svg">
<path d="M31.871 25.8715L21.84 10.2568L0 52H18.1923L31.871 25.8715Z" fill="url(#paint0_linear_1_622)"/>
<path d="M31.871 25.8716L22.6874 43.3853L0 0H18.1923L31.871 25.8716Z" fill="url(#paint1_linear_1_622)"/>
<path d="M55.9309 25.8715L45.8998 10.2568L24.0598 52H42.2613L55.9309 25.8715Z" fill="url(#paint2_linear_1_622)"/>
<path d="M55.9309 25.8716L46.7564 43.3853L24.0598 0H42.2613L55.9309 25.8716Z" fill="url(#paint3_linear_1_622)"/>
<path d="M79.9999 25.8715L69.9596 10.2568L48.1196 52H66.3211L79.9999 25.8715Z" fill="url(#paint4_linear_1_622)"/>
<path d="M79.9999 25.8716L70.8162 43.3853L48.1196 0H66.3211L79.9999 25.8716Z" fill="url(#paint5_linear_1_622)"/>
<defs>
<linearGradient id="paint0_linear_1_622" x1="-1.02245" y1="47.0642" x2="16.0049" y2="34.0624" gradientUnits="userSpaceOnUse">
<stop stop-color="#1397D6"/>
<stop offset="1" stop-color="#122E5F"/>
</linearGradient>
<linearGradient id="paint1_linear_1_622" x1="0" y1="21.6972" x2="31.871" y2="21.6972" gradientUnits="userSpaceOnUse">
<stop stop-color="#1397D6"/>
<stop offset="1" stop-color="#122E5F"/>
</linearGradient>
<linearGradient id="paint2_linear_1_622" x1="23.0374" y1="47.0642" x2="40.0647" y2="34.0624" gradientUnits="userSpaceOnUse">
<stop stop-color="#1397D6"/>
<stop offset="1" stop-color="#122E5F"/>
</linearGradient>
<linearGradient id="paint3_linear_1_622" x1="24.0598" y1="21.6972" x2="55.9309" y2="21.6972" gradientUnits="userSpaceOnUse">
<stop stop-color="#1397D6"/>
<stop offset="1" stop-color="#122E5F"/>
</linearGradient>
<linearGradient id="paint4_linear_1_622" x1="47.1064" y1="47.0642" x2="64.1245" y2="34.0624" gradientUnits="userSpaceOnUse">
<stop stop-color="#1397D6"/>
<stop offset="1" stop-color="#122E5F"/>
</linearGradient>
<linearGradient id="paint5_linear_1_622" x1="48.1196" y1="21.6972" x2="79.9999" y2="21.6972" gradientUnits="userSpaceOnUse">
<stop stop-color="#1397D6"/>
<stop offset="1" stop-color="#122E5F"/>
</linearGradient>
</defs>
</svg>
