<svg width="20" height="21" viewBox="0 0 20 21" fill="none" xmlns="http://www.w3.org/2000/svg">
<path d="M16.333 0.5C18.293 0.5 19.893 2.037 19.995 3.972L20 4.167V16.833C20 18.793 18.463 20.393 16.528 20.495L16.333 20.5H3.667C2.72818 20.5 1.82509 20.14 1.1438 19.4941C0.462517 18.8481 0.0549239 17.9655 0.00500011 17.028L0 16.833V4.167C0 2.207 1.537 0.607 3.472 0.505L3.667 0.5H16.333ZM13.707 7.793C13.5195 7.60553 13.2652 7.50021 13 7.50021C12.7348 7.50021 12.4805 7.60553 12.293 7.793L9 11.085L7.707 9.793L7.613 9.71C7.41201 9.55459 7.1594 9.48151 6.90647 9.5056C6.65355 9.52969 6.41928 9.64916 6.25125 9.83972C6.08321 10.0303 5.99402 10.2777 6.00177 10.5316C6.00953 10.7856 6.11365 11.027 6.293 11.207L8.293 13.207L8.387 13.29C8.5794 13.4393 8.81966 13.5132 9.06268 13.4979C9.30571 13.4826 9.53481 13.3792 9.707 13.207L13.707 9.207L13.79 9.113C13.9393 8.9206 14.0132 8.68034 13.9979 8.43732C13.9826 8.19429 13.8792 7.96519 13.707 7.793Z" fill="#1397D6"/>
</svg>
