<svg width="16" height="16" viewBox="0 0 16 16" fill="none" xmlns="http://www.w3.org/2000/svg">
<g clip-path="url(#clip0_181_1649)">
<path d="M5.33325 6H10.6666" stroke="#1397D6" stroke-width="1.5" stroke-linecap="round" stroke-linejoin="round"/>
<path d="M5.33325 8.66675H9.33325" stroke="#1397D6" stroke-width="1.5" stroke-linecap="round" stroke-linejoin="round"/>
<path d="M12 2.66675C12.5304 2.66675 13.0391 2.87746 13.4142 3.25253C13.7893 3.62761 14 4.13631 14 4.66675V10.0001C14 10.5305 13.7893 11.0392 13.4142 11.4143C13.0391 11.7894 12.5304 12.0001 12 12.0001H8.66667L5.33333 14.0001V12.0001H4C3.46957 12.0001 2.96086 11.7894 2.58579 11.4143C2.21071 11.0392 2 10.5305 2 10.0001V4.66675C2 4.13631 2.21071 3.62761 2.58579 3.25253C2.96086 2.87746 3.46957 2.66675 4 2.66675H12Z" stroke="#1397D6" stroke-width="1.5" stroke-linecap="round" stroke-linejoin="round"/>
</g>
<defs>
<clipPath id="clip0_181_1649">
<rect width="16" height="16" fill="white"/>
</clipPath>
</defs>
</svg>
