<svg width="20" height="21" viewBox="0 0 20 21" fill="none" xmlns="http://www.w3.org/2000/svg">
<path d="M10.0099 0.51123C10.7877 0.511278 11.5389 0.794601 12.1229 1.30823L12.2769 1.45323L12.9749 2.15123C13.1665 2.34154 13.4166 2.46168 13.6849 2.49223L13.8199 2.50023H14.8199C15.6371 2.50018 16.4234 2.8128 17.0175 3.37397C17.6116 3.93514 17.9684 4.70234 18.0149 5.51823L18.0199 5.70023V6.70023C18.0199 6.97023 18.1119 7.23323 18.2779 7.44323L18.3679 7.54323L19.0649 8.24123C19.6426 8.81568 19.9795 9.58885 20.0068 10.4031C20.0341 11.2173 19.7498 12.0114 19.2119 12.6232L19.0669 12.7772L18.3689 13.4752C18.1786 13.6668 18.0585 13.9169 18.0279 14.1852L18.0199 14.3202V15.3202C18.02 16.1374 17.7074 16.9237 17.1462 17.5178C16.585 18.1119 15.8178 18.4688 15.0019 18.5152L14.8199 18.5202H13.8199C13.5503 18.5203 13.2886 18.6112 13.0769 18.7782L12.9769 18.8682L12.2789 19.5652C11.7045 20.143 10.9313 20.4798 10.1171 20.5071C9.30281 20.5344 8.5088 20.2502 7.89692 19.7122L7.74292 19.5672L7.04492 18.8692C6.85336 18.6789 6.60322 18.5588 6.33492 18.5282L6.19992 18.5202H5.19992C4.38271 18.5203 3.59644 18.2077 3.00236 17.6465C2.40827 17.0853 2.0514 16.3181 2.00492 15.5022L1.99992 15.3202V14.3202C1.99983 14.0506 1.90895 13.7889 1.74192 13.5772L1.65192 13.4772L0.954923 12.7792C0.377205 12.2048 0.0403463 11.4316 0.0130312 10.6174C-0.0142839 9.80311 0.270002 9.0091 0.807924 8.39723L0.952924 8.24323L1.65092 7.54523C1.84124 7.35367 1.96138 7.10352 1.99192 6.83523L1.99992 6.70023V5.70023L2.00492 5.51823C2.04958 4.73368 2.38135 3.99298 2.93701 3.43732C3.49267 2.88166 4.23337 2.54988 5.01792 2.50523L5.19992 2.50023H6.19992C6.46954 2.50014 6.73127 2.40926 6.94292 2.24223L7.04292 2.15223L7.74092 1.45523C8.03826 1.15612 8.39179 0.918736 8.78119 0.75673C9.17059 0.594724 9.58817 0.511292 10.0099 0.51123ZM13.7069 7.79323C13.5194 7.60576 13.2651 7.50044 12.9999 7.50044C12.7348 7.50044 12.4805 7.60576 12.2929 7.79323L8.99992 11.0852L7.70692 9.79323L7.61292 9.71023C7.41193 9.55482 7.15932 9.48174 6.9064 9.50583C6.65347 9.52993 6.41921 9.64939 6.25117 9.83995C6.08314 10.0305 5.99394 10.2779 6.0017 10.5318C6.00945 10.7858 6.11358 11.0273 6.29292 11.2072L8.29292 13.2072L8.38692 13.2902C8.57933 13.4395 8.81958 13.5134 9.0626 13.4981C9.30563 13.4828 9.53473 13.3794 9.70692 13.2072L13.7069 9.20723L13.7899 9.11323C13.9392 8.92083 14.0131 8.68058 13.9978 8.43755C13.9825 8.19452 13.8791 7.96542 13.7069 7.79323Z" fill="#1397D6"/>
</svg>
