<svg width="32" height="32" viewBox="0 0 32 32" fill="none" xmlns="http://www.w3.org/2000/svg">
<g clip-path="url(#clip0_1_646)">
<path d="M2.66675 10.6668C2.66675 9.25234 3.22865 7.89579 4.22885 6.89559C5.22904 5.8954 6.58559 5.3335 8.00008 5.3335H24.0001C25.4146 5.3335 26.7711 5.8954 27.7713 6.89559C28.7715 7.89579 29.3334 9.25234 29.3334 10.6668V21.3335C29.3334 22.748 28.7715 24.1045 27.7713 25.1047C26.7711 26.1049 25.4146 26.6668 24.0001 26.6668H8.00008C6.58559 26.6668 5.22904 26.1049 4.22885 25.1047C3.22865 24.1045 2.66675 22.748 2.66675 21.3335V10.6668Z" stroke="white" stroke-width="1.5" stroke-linecap="round" stroke-linejoin="round"/>
<path d="M13.3333 12L19.9999 16L13.3333 20V12Z" stroke="white" stroke-width="1.5" stroke-linecap="round" stroke-linejoin="round"/>
</g>
<defs>
<clipPath id="clip0_1_646">
<rect width="32" height="32" fill="white"/>
</clipPath>
</defs>
</svg>
